<svg width="24" height="24" viewBox="0 0 24 24" fill="none" xmlns="http://www.w3.org/2000/svg">
<path d="M4 5V17H20V14C20 13.4477 20.4477 13 21 13C21.5523 13 22 13.4477 22 14V17C22 18.1046 21.1046 19 20 19H4C2.89543 19 2 18.1046 2 17V5C2 3.89543 2.89543 3 4 3H11C11.5523 3 12 3.44772 12 4C12 4.55228 11.5523 5 11 5H4Z" fill="#050038"/>
<path d="M20.0093 6.40496L20 8.99643C19.998 9.54871 20.4442 9.99802 20.9964 9.99999C21.5487 10.002 21.998 9.55585 22 9.00357L22.0214 3H16C15.4477 3 15 3.44772 15 4C15 4.55228 15.4477 5 16 5H18.5858L12.2929 11.2929C11.9024 11.6834 11.9024 12.3166 12.2929 12.7071C12.6834 13.0976 13.3166 13.0976 13.7071 12.7071L20.0093 6.40496Z" fill="#050038"/>
<path d="M6 21C6 20.4477 6.44772 20 7 20H17C17.5523 20 18 20.4477 18 21C18 21.5523 17.5523 22 17 22H7C6.44771 22 6 21.5523 6 21Z" fill="#050038"/>
</svg>
