<svg width="24" height="24" viewBox="0 0 24 24" fill="none" xmlns="http://www.w3.org/2000/svg">
<path d="M13.7072 15.7071L17.4143 12L13.7072 8.29289C13.3167 7.90237 12.6835 7.90237 12.293 8.29289C11.9025 8.68342 11.9025 9.31658 12.293 9.70711L14.5859 12L12.293 14.2929C11.9025 14.6834 11.9025 15.3166 12.293 15.7071C12.6835 16.0976 13.3167 16.0976 13.7072 15.7071Z" fill="#050038"/>
<path d="M7.7072 15.7071L11.4143 12L7.7072 8.29289C7.31668 7.90237 6.68351 7.90237 6.29299 8.29289C5.90246 8.68342 5.90246 9.31658 6.29299 9.70711L8.58588 12L6.29299 14.2929C5.90246 14.6834 5.90246 15.3166 6.29299 15.7071C6.68351 16.0976 7.31668 16.0976 7.7072 15.7071Z" fill="#050038"/>
</svg>
